<svg xmlns="http://www.w3.org/2000/svg" xml:space="preserve" width="2000" height="486" data-id="lg_RPeN7HJDtl3eJfjEJm" data-version="1" viewBox="0 0 2000 486"><g data-padding="20"><g transform="translate(10 8.087)scale(.96672)"><rect width="560" height="322.05" x="323.024" y="-317.962" fill="none" rx="0" ry="0" transform="translate(400.5 482.09)"/><path fill="#363636" d="M801.674 414.683h-34.49q-1.14 0-1.42-1.42l-39.33-195.8q-.29-1.14 1.14-1.14h32.2q1.14 0 1.43 1.14l23.37 130.53 22.8-130.53q.28-1.14 1.42-1.14h31.92q1.43 0 1.14 1.14l-38.76 195.8q-.28 1.42-1.42 1.42m47.31-1.42 35.34-195.8q.28-1.14 1.42-1.14h41.33q1.14 0 1.42 1.14l33.92 195.8q.28 1.42-1.14 1.42h-31.64q-1.14 0-1.42-1.42l-3.14-20.81h-38.76l-3.13 20.81q-.29 1.42-1.43 1.42h-31.63q-1.14 0-1.14-1.42m55.86-131.39-12.83 80.09h27.36l-11.68-80.09-1.71-10.54Zm127.95 135.65q-15.1 0-27.93-7.84-12.82-7.83-20.37-20.94-7.56-13.11-7.56-28.79l.57-142.5q0-1.14 1.14-1.14h31.92q1.14 0 1.14 1.14v142.5q0 9.69 6.13 16.39t14.96 6.7q9.12 0 15.25-6.7t6.13-16.39v-142.5q0-1.14 1.14-1.14h31.92q1.14 0 1.14 1.14l.57 142.5q0 15.96-7.55 29.07-7.56 13.11-20.24 20.81-12.68 7.69-28.36 7.69m171.87-2.84h-92.06q-1.14 0-1.14-1.42l.29-195.51q0-1.43 1.42-1.43h31.64q1.42 0 1.42 1.43l-.28 161.88h58.71q1.42 0 1.42 1.42v32.21q0 1.42-1.42 1.42m80.64 0h-32.2q-1.14 0-1.14-1.42v-162.45h-37.05q-1.43 0-1.43-1.43l.29-31.92q0-1.14 1.14-1.14h108.3q1.42 0 1.42 1.14v31.92q0 1.43-1.14 1.43h-37.33l.28 162.45q0 1.42-1.14 1.42M948.45 44.947c.77.41 1.345 1.214 1.345 2.395v13.612c0 1.18-.574 1.968-1.345 2.394v31.816c.77.394 1.345 1.197 1.345 2.378v13.612c0 1.197-.574 1.985-1.345 2.395v1.18c0 2.444 2.083 5.494 4.69 6.61l43.296 18.286c2.346.984 3.641-.05 3.641-1.936V65.81c0-2.46-2.099-5.51-4.707-6.61l-43.296-18.302c-2.345-.984-3.64.065-3.64 1.951Zm10.824 89.676-7.675 3.247a1.6 1.6 0 0 1-.492.082q-.246.033-.492-.082l-8.545-3.608c-.426-.18-.82-.59-.984-1.033l-.114-.427v-14.17l.016-.213V31.975q0-1.476.59-2.51a11.97 11.97 0 0 1 6.183-6.64L1000.864.388a6.56 6.56 0 0 1 3.412-.525q1.295-.05 2.804.574l53.103 22.435c2.723 1.148 5.084 3.756 6.15 6.527q.607 1.05.607 2.575v.164l.016.377V132.85q0 .328-.082.492c-.164.443-.557.87-1 1.066l-8.528 3.608a1.6 1.6 0 0 1-.508.082 1.6 1.6 0 0 1-.492-.098l-7.856-3.28-34.16 14.432v5.871a1.6 1.6 0 0 1-.1.492c-.164.443-.557.87-.984 1.066l-8.544 3.608a1.6 1.6 0 0 1-.492.082q-.246 0-.508-.098l-8.528-3.608a1.97 1.97 0 0 1-.984-1.017.8.8 0 0 1-.115-.443v-5.74Zm-4.658-45.822c.82 3.542 3.56 5.871 6.134 5.2s4.002-4.1 3.182-7.644-3.576-5.87-6.134-5.198c-2.59.688-4.002 4.1-3.182 7.642m2.903-10.463c1.148-3.034 3.247-5.28 5.986-6.003 5.248-1.377 10.84 3.346 12.513 10.562s-1.23 14.17-6.478 15.547c-2.509.656-5.084-.082-7.298-1.82q-.36.164-.77.262c-3.707.984-7.676-2.378-8.856-7.478s.87-10.037 4.592-10.988Zm21.976 27.617v-12.84a12.46 12.46 0 0 1 4.658-9.168c.016-2.723 1.345-5.052 3.411-5.576 2.575-.69 5.33 1.64 6.15 5.182s-.607 6.97-3.182 7.642c-1.115.296-2.28.017-3.28-.672a4.9 4.9 0 0 0-.967 2.591v12.841c0 4.51-6.773 4.51-6.773 0"/></g><path fill="transparent" stroke="transparent" d="M699.5 0h601v486h-601z"/></g></svg>