<?xml version="1.0" standalone="no"?>
<!DOCTYPE svg PUBLIC "-//W3C//DTD SVG 20010904//EN"
 "http://www.w3.org/TR/2001/REC-SVG-20010904/DTD/svg10.dtd">
<svg version="1.0" xmlns="http://www.w3.org/2000/svg"
 width="160.000000pt" height="177.000000pt" viewBox="0 0 160.000000 177.000000"
 preserveAspectRatio="xMidYMid meet">

<g transform="translate(0.000000,177.000000) scale(0.100000,-0.100000)"
fill="#000000" stroke="none">
<path d="M505 1575 c-181 -77 -277 -123 -293 -140 l-22 -26 0 -508 0 -508 43
-17 c53 -20 61 -20 97 -1 29 15 35 13 199 -56 l170 -71 3 -35 c3 -32 8 -37 50
-54 47 -18 49 -18 93 1 39 17 45 23 45 49 0 16 6 33 12 38 7 4 83 38 168 74
l155 66 41 -15 c38 -14 46 -14 88 2 l46 18 0 508 0 509 -22 26 c-16 17 -110
62 -295 140 -149 63 -280 115 -290 115 -10 -1 -139 -52 -288 -115z m-6 -366
c135 -57 224 -100 239 -115 22 -25 22 -26 22 -390 0 -362 0 -364 -21 -364 -28
0 -429 169 -455 192 -20 17 -20 26 -18 390 1 205 2 374 3 376 3 6 25 -3 230
-89z"/>
<path d="M349 941 c-43 -43 -49 -55 -49 -91 0 -61 38 -96 115 -105 55 -7 60
-6 81 19 47 54 39 153 -17 200 -46 39 -73 34 -130 -23z m41 -51 c35 -35 22
-110 -19 -110 -46 0 -73 96 -33 119 24 15 29 14 52 -9z"/>
<path d="M622 918 c-6 -6 -12 -15 -12 -20 0 -4 -11 -24 -25 -44 -22 -32 -25
-48 -25 -119 0 -86 11 -112 43 -99 13 4 17 24 19 87 l3 82 30 5 c20 4 32 13
39 31 18 52 -37 112 -72 77z"/>
</g>
</svg>
